<?xml version="1.0" encoding="utf-8"?>
<!-- Generator: Fusion 360, Shaper Origin Export Add-In, Version 1.8.0  -->
<svg xmlns="http://www.w3.org/2000/svg" xmlns:xlink="http://www.w3.org/1999/xlink" xmlns:shaper="http://www.shapertools.com/namespaces/shaper" shaper:fusionaddin="version:1.8.0" width="20.32cm" height="24.1300004cm" version="1.1" x="0cm" y="0cm" viewBox="0 0 20.32 24.1300004" enable-background="new 0 0 20.32 24.1300004" xml:space="preserve"><g id="Body_Body1"><path d="M4.1835295,9.2587084 A0.635,0.635 245.6842601 0,0 3.8100001,9.8373776 L3.8100001,13.3350004 A0.635,0.635 0 0,1 3.1750001,13.9700004 L-3.1750001,13.9700004 A0.635,0.635 90 0,1 -3.8100001,13.3350004 L-3.8100001,9.8373776 A0.635,0.635 0 0,0 -4.1835295,9.2587084 A10.16,10.16 114.3157399 1,1 4.1835295,9.2587084z" transform="matrix(1,0,0,-1,10.16,13.9700004)" fill="rgb(0,0,0)" shaper:cutDepth="1.905cm" stroke-linecap="round" stroke-linejoin="round" /><path d="M-1.3335,-2.794 a0.3175,0.3175 0 1,1 0.635,0 a0.3175,0.3175 0 1,1 -0.635,0z" transform="matrix(1,0,0,-1,10.16,13.9700004)" fill="rgb(108,108,108)" fill-rule="nonzero" shaper:cutDepth="0.15875cm" stroke-linecap="round" stroke-linejoin="round" /><path d="M-1.3335,-4.826 a0.3175,0.3175 0 1,1 0.635,0 a0.3175,0.3175 0 1,1 -0.635,0z" transform="matrix(1,0,0,-1,10.16,13.9700004)" fill="rgb(108,108,108)" fill-rule="nonzero" shaper:cutDepth="0.15875cm" stroke-linecap="round" stroke-linejoin="round" /><path d="M0.6985,-2.794 a0.3175,0.3175 0 1,1 0.635,0 a0.3175,0.3175 0 1,1 -0.635,0z" transform="matrix(1,0,0,-1,10.16,13.9700004)" fill="rgb(108,108,108)" fill-rule="nonzero" shaper:cutDepth="0.15875cm" stroke-linecap="round" stroke-linejoin="round" /><path d="M0.6985,-4.826 a0.3175,0.3175 0 1,1 0.635,0 a0.3175,0.3175 0 1,1 -0.635,0z" transform="matrix(1,0,0,-1,10.16,13.9700004)" fill="rgb(108,108,108)" fill-rule="nonzero" shaper:cutDepth="0.15875cm" stroke-linecap="round" stroke-linejoin="round" /><path d="M-1.905,-2.54 A0.635,0.635 180 0,0 -1.27,-1.905 L1.27,-1.905 A0.635,0.635 90 0,0 1.905,-2.54 L1.905,-5.08 A0.635,0.635 0 0,0 1.27,-5.715 L-1.27,-5.715 A0.635,0.635 270 0,0 -1.905,-5.08 L-1.905,-2.54z M0.6985,-4.826 a0.3175,0.3175 0 1,1 0.635,0 a0.3175,0.3175 0 1,1 -0.635,0z M0.6985,-2.794 a0.3175,0.3175 0 1,1 0.635,0 a0.3175,0.3175 0 1,1 -0.635,0z M-1.3335,-4.826 a0.3175,0.3175 0 1,1 0.635,0 a0.3175,0.3175 0 1,1 -0.635,0z M-1.3335,-2.794 a0.3175,0.3175 0 1,1 0.635,0 a0.3175,0.3175 0 1,1 -0.635,0z" transform="matrix(1,0,0,-1,10.16,13.9700004)" fill="rgb(133,133,133)" fill-rule="nonzero" shaper:cutDepth="0.635cm" stroke-linecap="round" stroke-linejoin="round" /><path d="M-0.2,9.3224998 L-0.2,10.9974998 0.2,10.9974998 0.2,9.3224998 -0.2,9.3224998z" transform="matrix(1,0,0,-1,10.16,13.9700004)" fill="rgb(152,152,152)" fill-rule="nonzero" shaper:cutDepth="1cm" stroke-linecap="round" stroke-linejoin="round" /><path d="M0.92075,8.8899998 A0.635,0.635 0 0,0 0.28575,8.2549998 L-0.28575,8.2549998 A0.635,0.635 270 0,0 -0.92075,8.8899998 L-0.92075,11.4299998 A0.635,0.635 180 0,0 -0.28575,12.0649998 L0.28575,12.0649998 A0.635,0.635 90 0,0 0.92075,11.4299998 L0.92075,8.8899998z" transform="matrix(1,0,0,-1,10.16,13.9700004)" fill="rgb(116,116,116)" fill-rule="nonzero" shaper:cutDepth="0.3175cm" stroke-linecap="round" stroke-linejoin="round" /></g></svg>