<?xml version="1.0" encoding="utf-8"?>
<!-- Generator: Fusion 360, Shaper Origin Export Add-In, Version 1.8.0  -->
<svg xmlns="http://www.w3.org/2000/svg" xmlns:xlink="http://www.w3.org/1999/xlink" xmlns:shaper="http://www.shapertools.com/namespaces/shaper" shaper:fusionaddin="version:1.8.0" width="5.08cm" height="5.0800003cm" version="1.1" x="0cm" y="0cm" viewBox="0 0 5.08 5.0800003" enable-background="new 0 0 5.08 5.0800003" xml:space="preserve"><g id="Body_Body4"><path d="M19.2299997,10.16 L20.0024997,10.16 A0.3175,0.3175 270 0,1 20.3199997,10.4775 L20.3199997,14.605 A0.635,0.635 0 0,1 19.6849997,15.24 L15.8749997,15.24 A0.635,0.635 90 0,1 15.2399997,14.605 L15.2399997,10.4775 A0.3175,0.3175 180 0,1 15.5574997,10.16 L16.3299997,10.1599997 16.3299997,12.16 19.2299997,12.16 19.2299997,10.16z" transform="matrix(1,0,0,-1,-15.2399997,15.24)" fill="rgb(0,0,0)" shaper:cutDepth="1.905cm" stroke-linecap="round" stroke-linejoin="round" /><path d="M17.9800006,12.86358 L17.5800006,12.86358 17.5800006,14.53858 17.9800006,14.53858 17.9800006,12.86358z" transform="matrix(1,0,0,-1,-15.2399997,15.24)" fill="rgb(152,152,152)" fill-rule="nonzero" shaper:cutDepth="1cm" stroke-linecap="round" stroke-linejoin="round" /></g></svg>